<?xml version="1.0" encoding="UTF-8"?>
<svg id="Layer_2" data-name="Layer 2" xmlns="http://www.w3.org/2000/svg" viewBox="0 0 445.68 682.65">
  <defs>
    <style>
      .cls-1 {
        fill: #9bdbf1;
      }

      .cls-2 {
        fill: #9cd4ba;
      }

      .cls-3 {
        fill: #ccebf7;
      }

      .cls-4 {
        fill: #6dc499;
      }

      .cls-5 {
        fill: #68c8ea;
      }

      .cls-6 {
        fill: #fff;
      }

      .cls-7 {
        fill: #292e34;
      }

      .cls-8 {
        fill: #444545;
      }

      .cls-9 {
        fill: #606161;
      }

      .cls-10 {
        fill: #067e41;
      }

      .cls-11 {
        fill: #037aa6;
      }

      .cls-12 {
        fill: #03542d;
      }

      .cls-13 {
        fill: #ed7775;
      }

      .cls-14 {
        fill: #37b5e1;
      }

      .cls-15 {
        fill: none;
        stroke: #fff;
        stroke-miterlimit: 10;
        stroke-width: 2px;
      }

      .cls-16 {
        fill: #cde9db;
      }

      .cls-17 {
        fill: #ec6b69;
      }

      .cls-18 {
        fill: #00a657;
      }

      .cls-19 {
        fill: #36b779;
      }

      .cls-20 {
        fill: #09a1dc;
      }

      .cls-21 {
        fill: #01526f;
      }

      .cls-22 {
        fill: #5a6374;
      }
    </style>
  </defs>
  <g id="Layer_1-2" data-name="Layer 1">
    <g>
      <g>
        <path class="cls-9" d="M348.87,194.27v195.25l-200.97,199.06V255.23l13.1,11.7c9.34,8.34,14.69,20.28,14.69,32.8h0c.92,16.94,7.39,43.47,13.47,65.25,4.77,17.09,25.96,23.05,38.91,10.92l86.51-80.97v-83.52l-47.24-36.12c-11.05-8.45-17.53-21.56-17.53-35.47v-15.08l99.06,69.53Z"/>
        <path class="cls-17" d="M348.39,237.84h-130.72c0,17.75,14.39,32.15,32.15,32.15h98.58v-32.15Z"/>
        <path class="cls-13" d="M348.39,269.99h-130.72c0,17.75,14.39,32.15,32.15,32.15h64.77v33.57l-66.2,68.58,100.01-21.43v-112.87Z"/>
        <path class="cls-9" d="M348.87,194.27v68.58l-34.29,32.09v-83.52l-47.24-36.12c-11.05-8.45-17.53-21.56-17.53-35.47v-15.08l99.06,69.53Z"/>
        <g>
          <rect class="cls-7" x="87.88" y="424.7" width="2.65" height="49.39" transform="translate(-320.3 243.92) rotate(-52.13)"/>
          <path class="cls-20" d="M369.26,116.23L100.38,475.24c-4.59,5.9-14.19,6.12-21.43.48l-13.12-10.2c-7.25-5.63-9.4-14.99-4.81-20.89L329.9,85.62l39.36,30.61Z"/>
          <path class="cls-6" d="M107.55,466.02l-39.36-30.61-7.17,9.22c-4.59,5.9-2.44,15.26,4.81,20.89l13.12,10.2c7.25,5.63,16.84,5.42,21.43-.48l7.17-9.22Z"/>
          <polygon class="cls-6" points="369.13 116.25 387.02 52.78 329.91 85.74 369.13 116.25"/>
          <polygon class="cls-20" points="359.06 68.92 378.26 83.85 387.02 52.78 359.06 68.92"/>
        </g>
        <path class="cls-6" d="M401.09,219.27l22.31,120.01-182.98,183.15v111.88h-93.09v-127.87l10.79-28.85c18.72-50.06,62.54-85.72,114.37-93.07l12.76-1.81c22.69-3.21,44.66-10.42,64.96-21.29h0s37.65-36.43,37.65-36.43l-7.11-64.54c-1.64-14.86,4.64-29.47,16.44-38.27l3.91-2.92Z"/>
        <path class="cls-6" d="M348.39,237.84h-130.72c0,17.75,14.39,32.15,32.15,32.15h98.58v-32.15Z"/>
        <path class="cls-6" d="M285.24,382.71l-12.76,1.81c-2,.28-3.99.61-5.97.98l48.07-49.79v-33.57h-64.77c-17.75,0-32.15-14.39-32.15-32.15h130.72v92.38c-19.79,10.34-41.14,17.23-63.15,20.35Z"/>
        <path class="cls-7" d="M148.65,634.31h-2.65v-128.11l10.87-29.07c18.89-50.52,63.11-86.5,115.42-93.91l12.76-1.81c22.54-3.19,44.19-10.28,64.36-21.06l37.05-35.85-7.04-63.9c-1.68-15.29,4.82-30.42,16.97-39.47l3.91-2.92,1.58,2.12-3.91,2.92c-11.4,8.5-17.5,22.7-15.92,37.06l7.18,65.18-38.24,37.01-.16.09c-20.49,10.98-42.49,18.19-65.4,21.43l-12.76,1.81c-51.35,7.28-94.76,42.61-113.31,92.22l-10.7,28.62v127.64Z"/>
        <rect class="cls-7" x="217.67" y="268.67" width="130.72" height="2.65"/>
      </g>
      <g>
        <rect class="cls-9" x="197.58" y="575.71" width="203.52" height="106.94"/>
        <rect class="cls-8" x="197.58" y="575.03" width="203.52" height="9.3"/>
        <rect class="cls-8" x="263.45" y="582.32" width="137.65" height="12.2"/>
        <rect class="cls-8" x="202.14" y="589.01" width="37.71" height="1.78"/>
        <rect class="cls-6" x="267.93" y="589.01" width="24.91" height="1.78"/>
        <rect class="cls-6" x="306.5" y="589.01" width="24.91" height="1.78"/>
        <rect class="cls-6" x="200.14" y="578.23" width="2.91" height="3.17"/>
        <g>
          <rect class="cls-6" x="388.47" y="670.49" width="2.32" height="3.17"/>
          <rect class="cls-6" x="384.05" y="670.49" width="2.32" height="3.17"/>
        </g>
        <rect class="cls-22" x="202.72" y="668.4" width="5.81" height="6.35"/>
        <rect class="cls-8" x="202.72" y="668.4" width="5.81" height="6.35"/>
        <rect class="cls-6" x="204.36" y="670.19" width="2.52" height="2.76"/>
        <rect class="cls-8" x="202.41" y="600.7" width="14.11" height="14.12"/>
        <rect class="cls-21" x="218.04" y="600.7" width="14.12" height="14.12"/>
        <rect class="cls-11" x="233.67" y="600.7" width="14.12" height="14.12"/>
        <rect class="cls-20" x="249.29" y="600.7" width="14.12" height="14.12"/>
        <rect class="cls-14" x="264.92" y="600.7" width="14.12" height="14.12"/>
        <rect class="cls-5" x="280.56" y="600.7" width="14.12" height="14.12"/>
        <rect class="cls-5" x="296.18" y="600.7" width="14.11" height="14.12"/>
        <rect class="cls-1" x="311.81" y="600.7" width="14.12" height="14.12"/>
        <rect class="cls-3" x="327.44" y="600.7" width="14.12" height="14.12"/>
        <rect class="cls-6" x="206.57" y="604.57" width="5.81" height="6.35"/>
        <rect class="cls-8" x="202.41" y="617.12" width="14.11" height="14.12"/>
        <rect class="cls-21" x="218.04" y="617.12" width="14.12" height="14.12"/>
        <rect class="cls-11" x="233.67" y="617.12" width="14.12" height="14.12"/>
        <rect class="cls-20" x="249.29" y="617.12" width="14.12" height="14.12"/>
        <rect class="cls-14" x="264.92" y="617.12" width="14.12" height="14.12"/>
        <rect class="cls-5" x="280.56" y="617.12" width="14.12" height="14.12"/>
        <rect class="cls-6" x="206.57" y="621" width="5.81" height="6.35"/>
        <rect class="cls-8" x="202.41" y="633.55" width="14.11" height="14.12"/>
        <rect class="cls-16" x="327.44" y="633.55" width="14.12" height="14.12"/>
        <rect class="cls-2" x="311.81" y="633.55" width="14.12" height="14.12"/>
        <rect class="cls-4" x="296.18" y="633.55" width="14.11" height="14.12"/>
        <rect class="cls-4" x="280.56" y="633.55" width="14.12" height="14.12"/>
        <rect class="cls-19" x="264.92" y="633.55" width="14.12" height="14.12"/>
        <rect class="cls-18" x="249.29" y="633.55" width="14.12" height="14.12"/>
        <rect class="cls-10" x="233.67" y="633.55" width="14.12" height="14.12"/>
        <rect class="cls-12" x="218.04" y="633.55" width="14.12" height="14.12"/>
        <rect class="cls-6" x="206.57" y="637.43" width="5.81" height="6.34"/>
        <rect class="cls-8" x="202.41" y="649.97" width="14.11" height="14.12"/>
        <rect class="cls-12" x="218.04" y="649.97" width="14.12" height="14.12"/>
        <rect class="cls-10" x="233.67" y="649.97" width="14.12" height="14.12"/>
        <rect class="cls-18" x="249.29" y="649.97" width="14.12" height="14.12"/>
        <rect class="cls-19" x="264.92" y="649.97" width="14.12" height="14.12"/>
        <rect class="cls-4" x="280.56" y="649.97" width="14.12" height="14.12"/>
        <rect class="cls-2" x="311.81" y="649.97" width="14.12" height="14.12"/>
        <rect class="cls-4" x="296.18" y="649.97" width="14.11" height="14.12"/>
        <rect class="cls-6" x="206.57" y="653.85" width="5.81" height="6.35"/>
        <rect class="cls-6" x="373.62" y="669.4" width="5.81" height="6.35"/>
        <rect class="cls-6" x="363.54" y="669.4" width="5.81" height="6.35"/>
        <rect class="cls-6" x="353.46" y="669.4" width="5.81" height="6.35"/>
        <rect class="cls-6" x="343.37" y="669.4" width="5.81" height="6.35"/>
      </g>
      <g>
        <path class="cls-6" d="M18.41,551.41c-.59,0-1.18-.08-1.76-.25-1.58-.47-2.89-1.52-3.67-2.97-.79-1.45-.96-3.12-.5-4.7.47-1.58,1.52-2.89,2.97-3.67,2.99-1.63,6.74-.52,8.37,2.47.79,1.45.96,3.12.5,4.7-.47,1.58-1.52,2.89-2.97,3.67-.92.5-1.92.75-2.94.75ZM18.4,541.07c-.67,0-1.35.16-1.99.51-.98.53-1.69,1.41-2.01,2.48-.32,1.07-.2,2.2.34,3.17.53.98,1.41,1.69,2.48,2.01,1.07.31,2.2.19,3.17-.34.98-.53,1.69-1.42,2.01-2.48s.2-2.2-.34-3.17h0c-.76-1.39-2.19-2.18-3.67-2.18Z"/>
        <path class="cls-6" d="M13.03,573.51l-1.93-3.54.12-.4c1.82-6.17,8.32-9.71,14.49-7.89l.21.06,5.41-18.33c1.92-6.49,8.75-10.21,15.25-8.3l-.57,1.92c-5.44-1.6-11.16,1.51-12.76,6.95l-5.97,20.25-2.13-.63c-4.98-1.47-10.22,1.28-11.88,6.15l1.53,2.81-1.76.96Z"/>
        <path class="cls-6" d="M23.54,579.56c-1.15,0-2.31-.17-3.45-.5-3.11-.92-5.67-2.99-7.22-5.83l-11.4-20.95c-3.2-5.87-1.02-13.25,4.85-16.45l20.95-11.4c5.87-3.2,13.25-1.02,16.45,4.85l11.4,20.95c3.2,5.87,1.02,13.25-4.85,16.45l-20.95,11.4c-1.8.98-3.78,1.48-5.78,1.48ZM33.06,524.95c-1.63,0-3.29.4-4.82,1.23l-20.95,11.4c-4.91,2.67-6.72,8.83-4.05,13.74l11.4,20.95c1.29,2.38,3.43,4.11,6.03,4.87,2.59.77,5.33.48,7.71-.82l20.95-11.4c4.91-2.67,6.72-8.83,4.05-13.74l-11.4-20.95c-1.84-3.37-5.32-5.29-8.91-5.29Z"/>
      </g>
      <g>
        <rect class="cls-6" x="326.28" y="517.86" width="18.14" height="1.79" transform="translate(-279.86 463.23) rotate(-51.96)"/>
        <path class="cls-6" d="M329.21,526.62c-.86-.67-.98-1.91-.31-2.78.66-.84,1.87-1,2.73-.33.86.67,1.01,1.89.35,2.74-.68.86-1.91,1.04-2.77.37h0Z"/>
        <rect class="cls-6" x="316.23" y="529.4" width="3.62" height="22.98" transform="translate(-303.93 458.05) rotate(-51.96)"/>
        <path class="cls-6" d="M343.95,510.12l-2.29-1.79-22.42,5.57-2.95,13.87-4.03,5.15,14.94,11.69,4.03-5.15,12.75-6.2-.02-23.13ZM322.33,516.87l18.01-4.47v18.56s-11.46,5.58-11.46,5.58l-2.32,2.96-9.23-7.22,2.3-2.93,2.69-12.47Z"/>
      </g>
      <g>
        <g>
          <path class="cls-6" d="M144.37,89.53c-.06.04-.12.07-.18.09-.49.18-1.03-.07-1.21-.56-.08-.21-7.8-21.07-10.97-34.71-.32-1.39-.51-2.76-.57-4.09-1.61.45-3.36.65-5.22.59-.86-.03-1.67-.22-2.41-.54-1.55,2.11-3.62,3.36-5.91,3.96,6.19,13.67,13.29,36.54,13.66,37.73.15.5-.12,1.02-.62,1.18-.5.15-1.02-.12-1.18-.62-.09-.29-7.55-24.32-13.77-37.93-3.26.37-6.79-.33-9.85-1.55-5.94-2.38-11.18-7.15-9.66-11.01.72-1.83,2.07-2.9,3.88-3.12,4.83-.57,11.66,5.12,13.39,7.57,1.03,1.47,2.17,3.55,3.35,6.04,1.97-.47,3.74-1.48,5.06-3.21-3.87-2.93-5.9-9.37-6.7-12.56-1.55-6.18-2.31-15.68.8-17.65.03-.02.06-.04.09-.05,1.69-.97,3.44-.79,4.94.51,5.01,4.36,6.79,21.13,3.99,28.03-.15.37-.31.72-.48,1.05.48.18.97.28,1.47.3,1.87.06,3.59-.16,5.14-.66.24-7.21,3.74-13.15,6.5-15.66,1.3-1.19,2.42-1.63,3.33-1.33.36.12.98.47,1.17,1.47.52,2.74-.42,8.8-4.09,13.08-1.41,1.64-3.1,2.89-5.03,3.73.03,1.39.2,2.84.55,4.32,3.15,13.52,10.83,34.27,10.91,34.48.16.42,0,.89-.38,1.12ZM133.34,47.51c1.34-.7,2.52-1.66,3.55-2.86,3.38-3.95,4.06-9.44,3.67-11.5,0,0,0,0,0,0-.31.08-1.13.49-2.32,1.89-1.9,2.21-4.48,6.79-4.89,12.48ZM99.4,41.24c-.5.32-.89.83-1.17,1.54-.93,2.35,3.09,6.35,8.61,8.56,2.67,1.07,5.6,1.7,8.31,1.52-1.04-2.16-2.04-3.96-2.94-5.24-1.77-2.51-8.03-7.21-11.62-6.78-.46.05-.85.19-1.19.4ZM117.27,20.74c-1.34.86-2.01,7.45.03,15.6,1.38,5.52,3.47,9.5,5.88,11.4.13-.26.25-.53.37-.82,2.75-6.79.67-22.28-3.49-25.9-.91-.79-1.76-.88-2.76-.3,0,0-.02.01-.03.02Z"/>
          <path class="cls-9" d="M121.86,89.51h40.56v21.69c0,4.34-3.52,7.86-7.86,7.86h-24.84c-4.34,0-7.86-3.52-7.86-7.86v-21.69h0Z" transform="translate(-24.88 47.85) rotate(-17.6)"/>
          <rect class="cls-9" x="119.27" y="97.66" width="44.03" height="3.93" transform="translate(-23.51 47.38) rotate(-17.6)"/>
          <rect class="cls-9" x="116.42" y="89.69" width="44.03" height="3.93" transform="translate(-21.23 46.14) rotate(-17.6)"/>
          <path class="cls-6" d="M158.25,84.56l-40.45,12.83-4.85-15.3c-14.26-3.33-25.82-13.99-30.24-27.91-3.36-10.59-2.39-21.86,2.72-31.72,5.11-9.87,13.76-17.15,24.36-20.51,21.87-6.94,45.3,5.21,52.23,27.08,4.42,13.92,1.11,29.3-8.62,40.24l4.85,15.3ZM118.88,95.3l37.27-11.82-4.64-14.62.32-.36c9.58-10.53,12.87-25.46,8.59-38.97h0c-6.66-20.99-29.15-32.65-50.14-25.99-10.17,3.22-18.47,10.22-23.38,19.69-4.91,9.47-5.84,20.29-2.61,30.45,4.29,13.51,15.58,23.82,29.48,26.9l.47.1,4.64,14.62Z"/>
        </g>
        <g>
          <path class="cls-6" d="M77.9,61.57s-.06.04-.1.05l-18.94,8.86c-.42.2-.91.02-1.11-.4-.19-.42-.01-.92.4-1.11l18.94-8.86c.42-.2.91-.01,1.11.4.18.38.04.83-.31,1.06Z"/>
          <path class="cls-6" d="M69.28,41.97c-.1.06-.21.11-.34.12l-11.4,1.48c-.46.06-.87-.26-.93-.72-.06-.46.26-.87.72-.93l11.4-1.48c.46-.06.87.26.93.72.04.33-.11.64-.38.81Z"/>
          <path class="cls-6" d="M79.8,88.55c-.33.21-.76.17-1.04-.12-.32-.33-.32-.86.01-1.18l8.21-8.04c.33-.32.86-.32,1.18.01.32.33.32.86-.01,1.18l-8.21,8.04s-.09.08-.14.11Z"/>
        </g>
        <g>
          <path class="cls-6" d="M171.99,31.13s.07,0,.11-.01l20.54-3.91c.45-.09.75-.52.66-.98-.09-.45-.53-.75-.98-.66l-20.54,3.91c-.45.09-.75.52-.66.98.08.42.46.7.87.68Z"/>
          <path class="cls-6" d="M167.5,10.19c.12,0,.24-.04.35-.1l10.11-5.47c.4-.22.56-.73.34-1.13-.22-.41-.73-.56-1.13-.34l-10.11,5.47c-.4.22-.56.73-.34,1.13.16.29.47.45.78.44Z"/>
          <path class="cls-6" d="M186.26,54.11c.38-.02.71-.31.77-.71.07-.46-.25-.88-.7-.95l-11.36-1.71c-.45-.07-.88.25-.95.7-.07.46.25.88.7.95l11.36,1.71c.06,0,.12.01.17,0Z"/>
        </g>
      </g>
      <g>
        <polygon class="cls-15" points="392.5 449.79 390.79 456.43 403.81 452.71 436.64 461.17 444.46 430.82 400.32 419.44 392.5 449.79"/>
        <rect class="cls-6" x="418.86" y="425.98" width="2" height="20.47" transform="translate(-107.34 733.91) rotate(-75.55)"/>
        <rect class="cls-6" x="416.88" y="433.67" width="2" height="20.47" transform="translate(-116.27 737.76) rotate(-75.55)"/>
      </g>
      <path class="cls-15" d="M81.18,257.5l-39.24-10.11c-4.38-1.13-8.88,1.53-10.01,5.91l-5.81,22.55c-1.13,4.38,1.53,8.88,5.91,10.01l25.59,6.6,8.39,14.22,2.91-11.31,2.33.6c4.38,1.13,8.88-1.53,10.01-5.91l5.81-22.55c1.13-4.38-1.53-8.88-5.91-10.01ZM55.48,276.03l-8.66,2.41,2.24-8.71,2.24-8.71,6.42,6.3,6.42,6.3-8.66,2.41Z"/>
    </g>
  </g>
</svg>